# xmcd
#
# Track frame offsets: 
#        150
#        12064
#        21554
#        35078
#        48565
#        59431
#        71347
#        83050
#        92747
#        101784
#        110770
#        120840
#        131938
#        143131
#
# Disc length: 2087 seconds
#
# Revision: 1
# Processed by: cddbd v1.5.2PL0 Copyright (c) Steve Scherf et al.
# Submitted via: ExactAudioCopy v0.99pb4
#
DISCID=c508250e
DTITLE=Beatles - Revolver (2009 Remaster)
DYEAR=1966
DGENRE=Rock
TTITLE0=Taxman
TTITLE1=Eleanor Rigby
TTITLE2=I'm Only Sleeping
TTITLE3=Love You To
TTITLE4=Here, There And Everywhere
TTITLE5=Yellow Submarine
TTITLE6=She Said She Said
TTITLE7=Good Day Sunshine
TTITLE8=And Your Bird Can Sing
TTITLE9=For No One
TTITLE10=Doctor Robert
TTITLE11=I Want To Tell You
TTITLE12=Got To Get You Into My Life
TTITLE13=Tomorrow Never Knows
EXTD=
EXTT0=
EXTT1=
EXTT2=
EXTT3=
EXTT4=
EXTT5=
EXTT6=
EXTT7=
EXTT8=
EXTT9=
EXTT10=
EXTT11=
EXTT12=
EXTT13=
PLAYORDER=
